<?xml version="1.0" encoding="UTF-8" standalone="no"?>
<!DOCTYPE svg PUBLIC "-//W3C//DTD SVG 1.1//EN"
 "http://www.w3.org/Graphics/SVG/1.1/DTD/svg11.dtd">
<!-- Generated by graphviz version 2.26.3 (20100126.1600)
 -->
<!-- Title: G Pages: 1 -->
<svg width="124pt" height="152pt"
 viewBox="0.00 0.00 124.00 152.00" xmlns="http://www.w3.org/2000/svg" xmlns:xlink="http://www.w3.org/1999/xlink">
<g id="graph1" class="graph" transform="scale(1 1) rotate(0) translate(4 148)">
<title>G</title>
<polygon fill="white" stroke="white" points="-4,5 -4,-148 121,-148 121,5 -4,5"/>
<g id="graph2" class="cluster"><title>cluster_Global</title>
<polyline fill="none" stroke="gray" points="20,-8 96,-8 "/>
<path fill="none" stroke="gray" d="M96,-8C102,-8 108,-14 108,-20"/>
<polyline fill="none" stroke="gray" points="108,-20 108,-124 "/>
<path fill="none" stroke="gray" d="M108,-124C108,-130 102,-136 96,-136"/>
<polyline fill="none" stroke="gray" points="96,-136 20,-136 "/>
<path fill="none" stroke="gray" d="M20,-136C14,-136 8,-130 8,-124"/>
<polyline fill="none" stroke="gray" points="8,-124 8,-20 "/>
<path fill="none" stroke="gray" d="M8,-20C8,-14 14,-8 20,-8"/>
<text text-anchor="middle" x="58" y="-122.1" font-family="Times Roman,serif" font-size="11.00" fill="gray">\</text>
</g>
<!-- \\apiv1 -->
<g id="node2" class="node"><title>\\apiv1</title>
<polygon fill="none" stroke="black" points="85,-106 31,-106 31,-70 85,-70 85,-106"/>
<text text-anchor="middle" x="58" y="-85.1" font-family="Courier,monospace" font-size="11.00">apiv1</text>
</g>
<!-- \\apiv1greek -->
<g id="node3" class="node"><title>\\apiv1greek</title>
<polygon fill="none" stroke="black" points="100,-52 16,-52 16,-16 100,-16 100,-52"/>
<text text-anchor="middle" x="58" y="-31.1" font-family="Courier,monospace" font-size="11.00">apiv1greek</text>
</g>
</g>
</svg>
